<svg xmlns="http://www.w3.org/2000/svg" width="75" height="72" fill="none"><path fill="#83B3D3" d="M71.0757 47.7H5.1103C2.80452 47.7 1 49.6 1 52v3.5c0 2.4 1.90477 4.3 4.1103 4.3h.90227v1.1c0 5.5 4.31083 10.1 9.62413 10.1h44.7121c5.3133 0 9.6241-4.5 9.6241-10.1v-1.1h.9023c2.3058 0 4.1103-1.9 4.1103-4.3V52c.2005-2.3-1.7043-4.3-3.9098-4.3Zm-3.9098 13.2c0 3.9-3.0076 7-6.7169 7H15.6367c-3.7093 0-6.71685-3.2-6.71685-7v-1.1H67.1659v1.1Zm5.1128-5.4c0 .7-.6015 1.3-1.203 1.3H5.01005c-.70176 0-1.20301-.6-1.20301-1.3V52c0-.7.6015-1.3 1.20301-1.3H70.9754c.7018 0 1.203.6 1.203 1.3.1003 0 .1003 3.5.1003 3.5ZM16.6392 39.4l5.4136 4.1 5.3133-4.1 5.3133 4.1 5.3133-4.1 5.4136 4.1 5.3133-4.1 5.3133 4.1 5.4136-4.1 5.3133 4.1 6.2156-4.7-1.7043-2.5-4.5113 3.4-5.3133-4.1-5.4136 4.1-5.3133-4.1-5.3133 4.1-5.4136-4.1-5.3133 4.1-5.3133-4.1-5.3133 4.1-5.4136-4.1-5.3133 4.1-4.51132-3.4-1.70428 2.5 6.2156 4.7 5.3133-4.1ZM9.02011 32.5H69.9729c0-.6.1003-1.2.1003-1.9v-1.2C69.3714 13.7 55.3362 1 38.093 1 20.7495 1 6.71432 13.7 6.01257 29.5v1.2c0 .6-.00442 1.2.09583 1.8h2.91171ZM38.093 4c15.6392 0 28.4714 11.3 29.0729 25.5H9.02011C9.62161 15.4 22.4538 4 38.093 4Z"/><path fill="#83B3D3" d="M38.093 18.3c1.052 0 1.9048-.8954 1.9048-2s-.8528-2-1.9048-2-1.9048.8954-1.9048 2 .8528 2 1.9048 2ZM30.2734 13.2c1.052 0 1.9048-.8954 1.9048-2s-.8528-2-1.9048-2-1.9048.8954-1.9048 2 .8528 2 1.9048 2ZM45.8123 13.2c1.052 0 1.9048-.8954 1.9048-2s-.8528-2-1.9048-2c-1.0519 0-1.9047.8954-1.9047 2s.8528 2 1.9047 2Z"/></svg>