<svg xmlns="http://www.w3.org/2000/svg" width="140" height="70" fill="none"><g clip-path="url(#a)"><path fill="#81B3D3" d="M140 0H0l60.3623 65.7c5.2754 5.8 14 5.8 19.2754 0L140 0Z"/><path fill="#23A9E1" d="m37.2319.5 32.5653 37.9L102.261.7 37.2319.5Z"/><path fill="#fff" d="M61.9858 14.7h17.5508c-1.3189-.8-4.4638-4.6-6.087-3.2-.1015.1-4.971-5.69999-8.1159-2.89999-2.7392 2.49999-4.058-.3-7.1015 1.59999-3.6522 2.4 2.029 3.7 3.7536 4.5Zm27.087-3.5-9.942.1c3.9565-4.49999 5.6811-3.99999 9.942-.1Z"/><path fill="#491213" d="M99.0147 3.6V1.2h2.1303l-2.1303 2.4ZM49.1017 13c.1014.1 2.4348-2.4 6.1884-4.9 3.4493-2.3 8.7246-4.9 14.6087-4.9 5.884 0 11.2609 2.7 14.7101 5 3.7537 2.4 6.087 4.8 6.1884 4.9l-2.5362 3c-4.5652.6-7.8116 3.9-12.2754 3.2-2.2318-.4-2.3333-1.6-2.942-2.9-.5072-1-1.3188-.8-2.3333-1.2-.9131-.4-1.5218-1.1-3.4493-.7-1.6232.4-1.8261 2.9-3.9565 2.8-1.116-.1-1.2174-1.6-2.8406-3.6-4.1594-4.9-7.953-4.28955-10.5907.2104L49.1017 13ZM40.5799 1.2v1.9l-1.6231-1.9h1.6231Zm54.6812 0h3.2464v3L95.2611 8V1.2Zm-4.1594 11.4V1.2h3.5507v7.4l-3.5507 4Zm-.5073-10.4v9.9c-1.1159-1.1-2.3333-2.1-3.6521-3l3.6521-6.9Zm-4.1594-.3v6.8c-.5072-.3-.913-.7-1.5217-1-.7102-.4-1.4203-.9-2.2319-1.3l3.7536-4.5Zm-4.4637-.2V6c-1.0145-.5-2.1305-1-3.145-1.5l3.145-2.8Zm.6087-.5h3.7536L82.58 5.8V1.2Zm4.3623 0h3.6521l-3.6521 7.1V1.2Zm-8.9276 0h3.9566l-3.5508 3.1c-.1014 0-.2029-.1-.3043-.1l-.1015-3Zm-.5072.4V4c-1.0145-.4-2.029-.7-3.1449-.9l3.1449-1.5Zm-4.2609 0v1.3c-.7101-.1-1.4203-.2-2.2319-.3l2.2319-1Zm-6.8985 0 2.2318 1c-.8115 0-1.5217.1-2.2318.3V1.6Zm-4.1595 0 3.145 1.5c-1.116.2-2.1305.5-3.145.9V1.6Zm3.6522 1.2L62.493 1.2h3.3478v1.6Zm3.5507-.4L66.551 1.1h2.8405v1.3Zm.7102-1.2h2.942l-2.942 1.3V1.2Zm3.7536 0h3.2464l-3.2464 1.6V1.2ZM61.2756 4.3l-3.5507-3.1h3.9565v3l-.4058.1Zm-3.6522-2.6 3.145 2.7c-1.116.4-2.1305.9-3.145 1.5V1.7Zm-4.3623.2 3.6522 4.5c-1.3189.7-2.5363 1.5-3.6522 2.4V1.9Zm-4.2609.3 3.6522 7c-1.3188 1-2.5362 2-3.6522 3.2V2.2Zm3.7537 6-3.6522-7.1h3.6522v7.1Zm4.3623-2.5-3.7536-4.6h3.7536v4.6ZM44.3336 7.5l-3.2464-3.8V1.2h3.2464v6.3Zm.6087-6.3h3.5507v11.2l-3.5507-4.2v-7ZM36.522 0v14.6l33.4782 39.9L103.479 15V0H36.522Z"/><path fill="#23A9E1" d="m67.3624 46 2.6377-4.2 2.6377 4.2-2.6377 4.2-2.6377-4.2Z"/><path fill="#DC6243" d="M75.2755 30.6c-3.4492-2-2.6376-3.5.2029-4.9 1.5218-.7 4.8696-3.4 6.1884-2.5l-6.3913 7.4Zm-2.3333 2.5c-2.029-.1-4.3623-.4-6.3913.1 1.2174.3 4.2609 1.2 1.4203 1.9 1.0145 1.4 2.6377 1.3 3.6522.1-.4058-.2-.7102-.5-1.0145-.7 1.1159-.3 2.1304-.9 2.3333-1.4Zm1.2174-1.6c-.9131-.8-1.9275-.8-2.7391 0-1.2174-2.1-5.4783-1.4-7.5073-1.7 1.116 2.6 9.7391 3.1 10.2464 1.7Zm-6.8986-2.2c-1.6231-.5-6.8985-.4-3.4492-1.8 1.1159-.4 6.7971.1 3.4492 1.8Zm2.029-3c-.5072-1.1.4058-2.4 1.7247-1.4 1.2174.8-.6087 2-1.7247 1.4Zm-2.942.1c-2.3333.7-5.3768-.8-1.6232-1.5 2.3333-.5 4.7681.5 1.6232 1.5-.1014 0 .1014 0 0 0Zm-2.6377-6.2c-.5072 1.6-1.5217 1.9-1.4203 0 .1015-2.3 1.6232-1.7 3.2464-2.6 1.3188-.7 2.029-3.4 4.3623-1.8 1.0145.7 2.2319.1 2.5363 1.2 0-.1-2.9421 6.7-1.3189 6.7-3.2464 0-1.8261-3.8-.6087-6.4-1.2174.6-3.1449 4.3-1.5217 5-.8116 1.1-3.4493 2.6-4.7681 1.5-1.116-1-.5073-2.3-.5073-3.6Zm-4.058 2.8c-5.6811 0-1.826-8.6.1015-8.1 2.2319.7 1.9275 8.2-.1015 8.1Zm-6.2898-8.2c-2.6377-.1-1.5217-2.6.3043-3.1 1.7247-.5 5.2754 1.1 6.4928 2.2-1.8261.6-4.1594.5-6.1884.6-.2029-2-.7102-1.3-.6087.3Z"/><path fill="#F49774" d="M72.8408 25.8c-2.9421-3 4.3623-2.7 5.5797-3.8.8116.3 7.1014-5.4 8.6232-5-1.116 1.3-3.4493 5.3-5.0725 5.3-1.3189 0-2.6377-.2-3.6522.7-1.5217 1.4-3.9565 2.1-5.4782 2.8Z"/><path fill="#F4B1A4" d="M73.7534 22.2c-1.6231.9-3.1449-2.5-.3043-2.2 1.8261.2 3.7536-.2 5.4783.1-1.3189 1.5-3.145 2.3-5.174 2.1Z"/><path fill="#fff" d="M51.8406 20.9c.3044.4.6087.8.5073 1.4 0 .4-.6087 1-.2029 1.2l1.5217-1.8c-.4058-.1-3.5507-3.8-3.5507-4.2l-2.1304 1.1c.1014.4.8115 0 1.2173 0 .5073 0 .9131.4 1.3189.7-1.116.9-3.8551 3.3-4.1594 3.3-.1015 0-.7102-.4-.7102 0 0 .2.6087.7.7102.8l1.4203 1.7c.4058-.2-.1015-.5.1014-.8.1015-.2 3.2464-2.7 3.9565-3.4Zm-3.4492-4.5c.3043-.1.4057.3.6086 0l-1.6231-1.9c-.2029-.3-.5073-.6-.5073 0 .1015.4-4.058 3.7-4.2609 3.8-.3043.1-.5072-.3-.7101.1.5072.6.913 1.1 1.4203 1.7.2029.2.3043.4.5072.6.2029.2.1015-.4.1015-.4-.1015-.3.3043-.6.6087-.8 1.0145-1 3.5507-3.1 3.8551-3.1Zm-5.7827-.6c-1.1159.3-2.4347-.1-2.7391-1.3-.4058-1.2.4058-2.4 1.3188-3.1.9131-.7 2.3334-.6 2.8406.5.2029.5.1015 1.1-.1014 1.6-.1015.3-.4058.6 0 .8.6087-.7 1.1159-1.4 1.7246-2.1-.7101-.4-1.0145-1.1-1.5217-1.7-.6087-.70001-1.3189-1.40001-2.3334-1.50001-1.9275-.3-3.6521 1.70001-3.855 3.40001-.1015.9.2029 1.8.8116 2.6.5072.6 1.2174 1.1 1.6232 1.8.2029.1 1.826-.7 2.1304-.8.2029 0 .1014-.1.1014-.2 0 0-.5072.2 0 0Zm25.8696 23.6c-.7101-.5-2.6377-3-3.0435-3.5l-.2029-.3-.2029.1c-.1014.1.1015.4 0 .6-.5072.8-3.7536 3.2-3.9565 3.4-.4058.2-.8116-.1-1.0145.2.5073.6 1.8261 2.3 2.029 2.3.3044 0 .1015-.5.1015-.6.1014-.2 1.7246-1.6 2.3333-2.1.2029-.2.4058.3.6087.5.2029.3.3043.7.2029 1-.1015.2-.5073.6-.2029.8.4058-.5 1.5217-1.8 1.7246-2 .2029-.2-.4058 0-.3043-.1-.2029.1-.5073.2-.7102 0-.1014 0-.7101-.7-.6087-.8.3044-.2.6087-.6 1.0145-.7.6087-.1 1.0145 1 1.116 1.4.1014.4.1014.8-.1015 1.1-.1014.3-.3043.5 0 .6l1.4203-1.9c0 .1-.1014.1-.2029 0 .1015.1-.1014 0 0 0Zm-9.3333-8.9c-.7102 0-1.4203.3-2.029.8-1.4203 1.2-1.6232 3.3-.5073 4.8 1.3189 1.7 3.4493 1.9 5.174.7 1.4202-1.2 1.6231-3.3.5072-4.8-.8116-1-2.029-1.5-3.1449-1.5Zm1.2174 1.4c.913-.1 1.5217.8 1.1159 1.8-.4058 1-1.4203 2-2.4348 2.4-1.2174.5-2.029-.5-1.5217-1.7.4058-1 1.4203-2 2.4348-2.4.1014 0 .2029-.1.4058-.1Zm-2.8406-4.6c.3043 0 .6087.4.8116 0l-1.4203-1.7c-.4058.2 0 .4-.1015.6-.2029.3-1.7246.5-2.1304.6.1015-.4.6087-1.7.8116-1.8.4058-.3.6087.3.8116-.1l-1.8261-2.1c-.2029-.2-.4058-.7-.6087-.4 0 0 0 1-.1014 1.1-.1015.2-.6087 2.4-1.2174 2.9-.3044.3-1.5218 1.3-1.8261 1.4-.3044.1-.5073-.4-.8116 0l1.6232 1.9c.1014.1.4058.6.5072.6.3044.1 0-.6.1015-.7.1014-.3 1.6232-1.8 2.3333-1.9.9131-.2 2.029-.5 3.0435-.4-.2029 0 .2029 0 0 0ZM82.0725 34c.1015.4.2029.9.1015 1.3-.1015.6-.6087 1.9-1.4203 1.5-.8116-.4-1.4203-1.1-2.1305-1.7.5073-.6 1.0145-1.1 1.9276-.8.2029.1.4058 0 .2029-.2-.3044-.2-2.029-1.3-2.1305-1.2-.2029.2.3044.6.1015 1-.1015.3-.4058.5-.6087.8-.5073-.4-1.2174-.8-.7102-1.5.4058-.4.8116-.8 1.4203-.9.4058-.1 1.2174.3 1.3189-.1-.7102-.3-1.4203-.7-2.1305-1 .1015.5-2.2318 2.9-2.7391 3.5-.1014.1-.4058.4-.4058.5 0 .3.4058.1.4058.1.3044-.1 4.4638 3.3 4.5652 3.6.1015.2-.1014.4 0 .5 0 0 .1015.1.2029.1.3044-.3 2.9421-3.9 3.5508-4-.5073-.8-1.0145-1.6-1.5218-2.4-.4058.2-.1014.7 0 .9Zm-4.058 4.4c-1.3188-.9-3.6521.8-4.0579 1-.7102.3-1.2174-.4-.8116-1 .3043-.5.913-.8 1.5217-.8.2029 0 .9131.1.9131 0 .1014-.1.1014-.1 0-.2-.6087-.4-1.116-.8-1.7247-1.1-.1014.7-.913 1.1-1.3188 1.6-.5073.6-1.0145 1.3-1.0145 2s.4058 1.4 1.1159 1.7c.7102.4 1.5218.1 2.2319-.3.4058-.3.8116-.6 1.2174-.8.6087-.3 1.5217 0 1.3188.8-.2029.7-.913 1.3-1.6231 1.5-.4058.1-.8116.1-1.2174-.1-.3044-.1-.6087-.5-.8116-.1l2.3333 1.6c.1015-.5.3043-.7.7101-1 .5073-.4.9131-.9 1.3189-1.4.8116-.9 1.1159-2.5-.1015-3.4Zm17.8551-28.1c0 .1 0 .1 0 0l-.913 1-.8116 1c-.2029.2-.3044.3 0 .5.5072-.3 3.5507 4.8 3.3478 5.5-.5072.2-4.5652-3.3-4.6667-3.5 0-.1.2029-.7-.1014-.6-.1015 0-.5073.6-.6087.7l-.6087.7c.2029.3.3043 0 .6087 0 .2029.1 1.2174.9 1.5217 1.1-.5072 0-1.7246.1-1.9275.1-.6087.1-.3044-.4-.7102-.6L89.4783 18l-.913 1v.1c.2029.2.1014.1.4058 0 .3043-.1 4.3623 3.2 4.4637 3.4.2029.3-.1014.6.3044.8l1.2174-1.4c.1014-.1.1014-.1 0-.1-.3044-.2-.3044.1-.7102.1-.3043-.1-2.942-2.2-3.8551-3l5.3769-.2c.2029 0 .7101.6.7101.8-.1014.2-.3043.4 0 .5.3044-.4.6087-.7.9131-1.1l.1014-.2c.1014 0 .1014-.1.1014-.2l.1015-.1c.3044-.3 1.2174-1.3 1.1159-1.4-.3043-.3-.4058.3-.8116 0-.2029-.2-.8116-1.2-.913-1.4-.2029-.3.4058-.6.6087-.7.5072-.3 2.1304-.8 2.3333.2 0 .2-.2029.4-.1014.5 0 0 .1014.2.2024.1l2.131-2.6c-.102-.1-.102-.1-.203-.2-.507.5-5.5797-1.5-5.884-1.8-.1015-.2-.1015-.8-.3044-.8Zm-.2029 2.6c.8116.3 1.5218.6 2.3333 1-.2029.1-.4058.2-.6086.3-.2029.1-.4058.3-.6087.5l-1.116-1.8Zm-6.6956 7.7c-1.116-.1-2.2319.4-3.0435 1.3-1.2174 1.5-1.116 3.7.4058 4.9 1.5217 1.2 3.7536.9 4.971-.5 1.2174-1.5 1.1159-3.7-.4058-4.9-.5073-.4-1.2174-.7-1.9275-.8Zm-1.4203 1.6c.6087 0 1.3188.4 1.7246.7.8116.5 2.2319 1.7 1.5217 2.7 0-.1.1015-.1-.1014.1-.8116.8-2.2319.1-2.942-.5-.7102-.5-2.029-1.7-1.2174-2.7.3043-.2.6087-.3 1.0145-.3Zm-3.145 4.3c-1.2174-.1-2.4347.5-3.3478 1.6-.6087.8-1.3188 1.5-1.9275 2.3.2029.3.5072-.1.8116.1.3043.2 4.1594 3.3 4.1594 3.5.1014.3-.2029.4.1014.6.1015.1 2.9421-3.4 3.2464-4 .4058-1.1.1015-2.4-.8116-3.2.1015.1.2029.1 0 0-.8116-.6-1.5217-.9-2.2319-.9Zm-1.1159 1.6h.3044c1.4202.4 3.4492 2.1 2.1304 3.6l-.4058.4c-.2029.2-4.2609-3-4.058-3.2.4058-.5 1.3189-.9 2.029-.8Z"/></g><defs><clipPath id="a"><path fill="#fff" d="M0 0h140v70H0z"/></clipPath></defs></svg>