<svg xmlns="http://www.w3.org/2000/svg" width="75" height="76" fill="none"><path fill="#83B3D3" d="M67.1 22.4625H42.3c13.8-6.9049 14.9-11.3079 14.4-13.70962-1.2-4.00281-5.7-7.00491-10-5.40379-5.6 2.10147-7.1 10.40731-8.6 16.41151-2-6.1043-3.8-13.80969-8.2-17.71242C28.6.94741 26.8-.25343 24.1.04678c-4 .40028-9.8 5.40378-7.5 11.00772 2.3 5.4038 9.7 8.8062 14.6 11.5081H8.9c-1.6 0-2.9 1.3009-2.9 2.902v11.3079c0 1.6011 1.3 2.902 2.9 2.902h.3V76H67V39.5745h.1c1.6 0 2.9-1.3009 2.9-2.9021V25.3645c0-1.6011-1.3-2.902-2.9-2.902ZM48.4 5.85084c2.1-.30021 5 1.30092 5.3 3.20225.4 2.80201-3.4 5.30371-5.1 6.40451-2.5 1.7012-4.9 2.6018-7.3 4.1028.9-3.7025 2.5-13.00907 7.1-13.70956ZM25.5 15.8579c-2.2-1.5011-6.5-4.4031-6.4-7.80551.1-3.60253 5.7-6.60463 8.8-3.90274C31.8 7.55204 33.6 15.2574 35 20.7613c-3.2-1.5011-6.3-2.802-9.5-4.9034Zm6 57.14H12.1V39.5745h19.4v33.4234Zm0-36.5256H9V25.4646h22.5v11.0077Zm10.2 0v36.5256h-7.2V25.5647h7.2v10.9076ZM64 72.9979H44.6V39.5745H64v33.4234Zm2.9-36.5256H44.6V25.4646h22.3v11.0077Z"/></svg>