<svg xmlns="http://www.w3.org/2000/svg" width="30" height="29" fill="none"><path fill="#000" d="M9.9 28c-.3 0-.6-.1-.8-.4-5.4-6.1-6.7-7.5-7-7.9-.7-.9-1.1-2.1-1.1-3.3 0-3 2.4-5.4 5.5-5.4 1.3 0 2.5.5 3.5 1.3 1-.8 2.3-1.3 3.5-1.3 3 0 5.5 2.4 5.5 5.4 0 1.3-.5 2.5-1.3 3.4l-7 7.9c-.2.2-.4.3-.8.3Zm-6-9.5c.3.4 3.5 4 6.1 6.9l6.2-7c.5-.5.7-1.2.7-2 0-1.8-1.5-3.3-3.3-3.3-1 0-2 .5-2.7 1.3-.3.3-.6.4-.9.4-.3 0-.6-.2-.8-.4-.7-.8-1.7-1.3-2.7-1.3-1.8 0-3.3 1.5-3.3 3.3-.1.9.3 1.6.7 2.1-.1 0-.1 0 0 0Z"/><rect width="20" height="20" x="10" fill="#7DB54F" rx="10"/><path fill="#fff" d="M15.1308 13.26h1.4V8.42l.1-.59-.4.47-1.1.79-.38-.51 2.2-1.7h.36v6.38h1.37V14h-3.55v-.74ZM23.96 8.59c0 .35333-.0667.71667-.2 1.09-.1267.3667-.2967.7367-.51 1.11-.2067.3733-.44.74-.7 1.1-.26.3533-.52.69-.78 1.01l-.49.43v.04l.64-.11h2.18V14h-3.98v-.29c.1467-.1533.3233-.3433.53-.57.2067-.2267.42-.4767.64-.75.2267-.28.4467-.5733.66-.88.22-.3133.4167-.63.59-.95.18-.32.3233-.63667.43-.95.1067-.31333.16-.61.16-.89 0-.32667-.0933-.59667-.28-.81-.1867-.22-.47-.33-.85-.33-.2533 0-.5.05333-.74.16-.24.1-.4467.21667-.62.35l-.33-.57c.2333-.2.51-.35667.83-.47.32-.11333.6633-.17 1.03-.17.2867 0 .54.04333.76.13.22.08.4067.19667.56.35.1533.15333.27.33667.35.55.08.20667.12.43333.12.68Z"/></svg>